<?xml version="1.0" encoding="UTF-8"?>
<svg id="Layer_1" data-name="Layer 1" xmlns="http://www.w3.org/2000/svg" viewBox="0 0 408.1 408.1">
  <defs>
    <style>
      .cls-1 {
        fill: #fff;
      }

      .cls-2 {
        fill: none;
        stroke: #fff;
        stroke-width: 5.68px;
      }
    </style>
  </defs>
  <rect class="cls-2" x="62.6" y="62.6" width="282.89" height="282.89" transform="translate(-84.52 204.05) rotate(-45)"/>
  <g>
    <path class="cls-1" d="M268.42,235.26c.19-4.13-.45-6.8-.93-7.79-.48-.99-1.07-2.08-1.86-2.35-1.14-.39-1.9,.34-2.59,1.85-.7,1.51-3.31,8.12-3.31,8.12,0,0-2.76,7.47-3.63,10.56-.87,3.09-1.46,6.53-1.52,7.68-.05,1.15,.3,3.72,1.11,4,.8,.28,2.38,.41,4.62-1.99,2.23-2.4,4.7-6.76,5.72-9.26,1.04-2.5,2.19-6.68,2.39-10.81Z"/>
    <path class="cls-1" d="M208.75,206.39c-1.77,.68-2.67,1.51-2.67,1.51,0,0-3.3,2.54-5.63,7.24-1.44,2.89-2.23,6.44-2.29,7.88-.07,1.44,.72,3.12,2.35,3.19,1.63,.08,3.35-1.57,4.67-3.15,1.33-1.57,3.9-5.11,4.75-6.9,.85-1.79,1.65-4.16,1.9-5.59,.25-1.43,.28-1.81-.14-3.18-.46-1.51-2.17-1.3-2.93-1Z"/>
    <path class="cls-1" d="M289.49,215.95c.59-.17,2.53-1.13,4.1-2.31,1.75-1.31,4.49-4.41,5.42-5.76,.93-1.35,2.26-4.03,1.81-4.72-.45-.69-1.78-.18-2.95,.34-1.18,.52-3.16,1.77-5.34,4.08-2.18,2.3-2.76,3.43-2.76,3.43,0,0-1.51,2.5-1.62,3.73-.1,1.15,.75,1.38,1.34,1.22Z"/>
    <path class="cls-1" d="M403.09,204.02l-54.57-54.01H59.24L5.22,204.3l54.85,54.57H246.64c-1.36-5.43,1.59-13.18,4.33-19.82,.8-1.95,5.19-10.64,4.39-10.92,0,0,0,0,0,0-2.34,2.49-4.9,5.17-7.91,5.21-1.38,.02-2.95-1.73-3.89-4.08-.6-3.59,0-4.48-2.03-1.83-2.45,3.21-5.59,6.19-9.8,5.8-3.84-.36-4.77-5.97-5.42-5.55-2.38,1.53-13.13,9.32-17.43,2.58,0,0-1.09-1.5-1.03-2.65,.06-1.15-.97,.05-2.08,1.25-6.39,6.92-10.99,4.49-12.99,1.99-1.33-1.66-1.01-3.22-2.18-2.89-1.02,.29-1.32,1.47-2.42,2.39-3.35,2.77-5.08,3.4-7.63,2.72-4.85-1.29-2.39-6.46-4.27-7.42-.03-1.35-3.06,2.59-5.81,4.83-3,2.45-8.84,4.47-11.09,.44-4.79-8.6,10.52-29.14,14.03-32.25,0,0,3.55,.21,4.49,2.81,1.02,2.84-1.51,3.49-4.34,8.27-3.42,5.79-10.44,15.96-6.72,16.14,2.49,.12,12.07-9.05,13.54-15.91,4-11.36,8.33-25.1,16.8-31.93,5.3-4.27,8.69-.55,8.41,3.38-.26,3.65-1,4.86-2.31,8.26-2.34,4.61-3.26,5.91-4.73,8.53-.56,1.01-7.05,9.73-8.12,10.97-4.78,5.55-4.11,3.46-5.98,8.38-1.29,3.41-1.57,8.74,.16,8.86,2.09,.15,4.27-2.87,5.86-5.88,1.58-3,1.49-5.03,3.61-9.26,3.47-6.92,12.77-15.66,21.42-9.48,2.47-3.35,4.43-8.17,6.53-11.92,2.26-4.03,7.74-11.69,10.89-14.5,1.89-1.68,2.95-1.09,4.37,1.26,1.96,3.27-1.08,6.66-3.97,10.78-7.48,10.67-16.76,22.79-17.58,34.11-.09,1.15,1,6.07,2.04,5.55,4.24-2.11,6.8-5.36,9.27-8.71,3.84-7.9,5.96-16.86,9.82-24.75,3.09-6.3,6.17-10.49,10.53-15.19,2.22-2.39,7.58-4.31,8.99-.4,1.45,4.01-3.45,13.65-7.1,19.44-5.72,9.07-7.77,11.86-15.14,21.13-.72,.9-1.76,5.9,.22,7.61,1.3,1.12,7.24-6.16,8.67-8.35,2.79-4.29,5.47-7.92,8.11-12.99,1.79-3.43,3-6.5,5.05-6.88,1.83-.35,4.68,2.38,4.76,3.11,.27,2.42-1.94,2.41-5.78,10.51-1.1,2.32-6.45,11.67-4.28,13.27,.91,.67,2.94-.67,5.13-2.93,.42-.46,.81-.88,1.17-1.28,.09-.1,.17-.19,.26-.3h0c1.7-1.85,2.92-3.33,4.65-6.98,4.41-9.33,9.95-19.26,15.99-28.98,2.69-4.34,5.41-8.59,8.62-11.52,3.18-2.9,7.57,1.15,7,4.56-1.21,7.26-2.87,9.97-6.65,16.53-1.29,2.23-3.12,4.95-6.09,8.66-4.83,6.05-11.42,11.43-12.79,14.22-.74,1.51,10.13,2.45,11.13,.72,.18-.31,.97-3.84,2.58-6.85,3.8-7.09,9.86-10.61,12.15-11.79,4.88-2.51,8.97-2.95,12.01,.52,2.38,2.71,2.6,6.14,0,10.8-2.66,4.96-6.72,9.19-12.61,11.56-2.54,.94-4.9,.97-4.29,2.2,1.18,2.37,3.32,4.05,8.89,3.11,5.69-.96,9.07-4.43,12.8-9.12,0,0,1.58-1.99,3.42-1.18,3.86,1.96,.96,6.39,.96,6.39-6.3,8.12-17.15,11.51-25.48,9.75-4.96-1.05-7.21-4.07-8.86-6.47-1.2-1.91-.88-1.61-2.45-1.63-6.64,0-6.78-.84-6.03,1.62,1.49,4.81,2.67,5.24,.6,16.4-1.27,6.87-4.74,12.26-8.73,15.99h83.95l54.85-54.85Zm-230.73-17.64c-1.3,2.93-5.03,10.74-6.5,13.36-5.8,10.36-13.39,22.76-22.91,30.87-5.62,4.79-10.85,7.67-16.44,5.87-4.91-1.58-3.85-8.07-2.54-13.4,.97-3.94,2.4-7,3.41-9.08,1.28-2.63,3.45-5.8,3.09-6.4-.62-1.03-1.27,.43-1.27,.43-3.4,4.75-5.57,8.01-8.6,12.97l-3.59,4.74c-4.25,4.42-6.2,7.02-12.12,10.21-4.72,2.08-10.06,1.07-11.75-3.83-.76-2.18,.53-7.28,1.8-9.53,10.1-22.16,19.82-30.63,25.72-41.42,3.47-4.94,1.21-5.23-5.19-.05-4,3.23-7.63,6.57-12.41,12.12-1.76,2.04-5.06,7.36-7.35,9.08-2.29,1.72-4.84,.54-5.59-1.9-.08-4.43,5.29-10.24,10.17-15.79,5.49-6.24,11.58-10.91,18.42-15.11,3.54-2.18,7.81-4.44,11.21-3.13,4.5,2.52,2.07,9.14-.22,12.89-7.55,12.32-16.36,22.42-22.71,34.82-2.52,4.5-8.29,12.6-3.65,14.17,4.11,.58,23.1-28.53,33.81-43.73,3.61-5.12,7.26-11.21,13.15-13.63,3.2-1.32,6.05,3.2,4.3,6.75-5.75,11.66-11.85,20.71-18.59,33.19-1.21,2.24-2.53,5.42-3.67,8.63-.77,2.18-1.84,6.32-1.18,8.47,.73,2.34,2.43,1.56,3.83,.37,6.41-5.41,11.11-13.21,15.64-19.57,6.9-9.68,13.76-24.54,17.41-36.52,1.82-5.98,8.83-9.78,10.45-3.36,.53,2.09-2.51,10.47-6.11,17.51Zm6.99,8.89c-2.07,1.06-2.93,.82-4.52-.12-1.59-.94-1.77-3.21-1.44-4.11,.66-1.8,2.55-2.96,2.55-2.96,0,0,.6-.55,1.49-.99,.88-.44,1.65-.31,2.8-.16,1.15,.15,2.09,2.5,2.04,3.65-.05,1.15-.84,3.62-2.91,4.68Zm83.65,.6c-2.29,.61-4.74-.87-5.03-2.59-.56-3.34,1.2-4.99,3.56-6.04,2.36-1.04,4.33,.2,5.42,1.41,2.14,3.56-1.46,6.55-3.95,7.22Z"/>
  </g>
  <g>
    <g>
      <path class="cls-1" d="M155,102.59v-22.39h4.46l8.81,15.25h.06v-15.25h4.03v22.39h-4.12l-9.15-15.94h-.06v15.94h-4.03Z"/>
      <path class="cls-1" d="M184.99,102.9c-6.11,0-9.39-4.19-9.39-11.5s3.29-11.5,9.39-11.5,9.4,4.19,9.4,11.5-3.29,11.5-9.4,11.5Zm0-19.41c-3.5,0-5.12,2.67-5.12,7.91-.06,5.24,1.58,7.91,5.12,7.91s5.12-2.67,5.12-7.91-1.61-7.91-5.12-7.91Z"/>
      <path class="cls-1" d="M197.58,102.59v-22.39h8.93c5.08,0,7.13,2.95,7.16,6.64,.03,2.76-1.36,4.99-4.09,5.77l4.93,9.98h-4.74l-4.22-9.12h-3.69v9.12h-4.28Zm4.28-12.59h3.16c3.35,0,4.37-1.05,4.37-3.16s-1.27-3.16-3.63-3.16h-3.91v6.33Z"/>
      <path class="cls-1" d="M231.9,80.18v3.6h-5.86v18.82h-4.28v-18.82h-5.86v-3.6h16Z"/>
      <path class="cls-1" d="M234.57,102.59v-22.39h4.28v8.93h8.62v-8.93h4.28v22.39h-4.28v-9.61h-8.62v9.61h-4.28Z"/>
      <path class="cls-1" d="M144.94,120.33c-.62-1.89-1.95-3.22-4.06-3.22-2.85,0-4.59,2.67-4.59,7.91-.06,5.24,1.49,7.91,4.71,7.91,1.92,0,3.1-.68,4.37-3.32l3.97,1.05c-1.33,3.88-4.25,5.86-8.34,5.86-5.71,0-8.99-4.19-8.99-11.5s3.29-11.5,8.99-11.5c4.28,0,6.76,1.92,7.81,5.89l-3.88,.93Z"/>
      <path class="cls-1" d="M156.71,113.79h5.33l6.36,22.42h-4.25l-1.24-4.84h-7.07l-1.33,4.84h-4.25l6.45-22.42Zm.06,14.05h5.21l-2.51-9.74h-.06l-2.64,9.74Z"/>
      <path class="cls-1" d="M170.89,136.21v-22.39h8.93c5.08,0,7.13,2.95,7.16,6.64,.03,2.76-1.36,4.99-4.09,5.77l4.93,9.98h-4.74l-4.22-9.12h-3.69v9.12h-4.28Zm4.28-12.59h3.16c3.35,0,4.37-1.05,4.37-3.16s-1.27-3.16-3.63-3.16h-3.91v6.33Z"/>
      <path class="cls-1" d="M198.88,136.52c-6.11,0-9.39-4.19-9.39-11.5s3.29-11.5,9.39-11.5,9.4,4.19,9.4,11.5-3.29,11.5-9.4,11.5Zm0-19.41c-3.5,0-5.12,2.67-5.12,7.91-.06,5.24,1.58,7.91,5.12,7.91s5.12-2.67,5.12-7.91-1.61-7.91-5.12-7.91Z"/>
      <path class="cls-1" d="M211.47,136.21v-22.39h4.28v18.79h9.74v3.6h-14.01Z"/>
      <path class="cls-1" d="M228.44,136.21v-22.39h4.28v22.39h-4.28Z"/>
      <path class="cls-1" d="M237.31,136.21v-22.39h4.46l8.81,15.25h.06v-15.25h4.03v22.39h-4.12l-9.15-15.94h-.06v15.94h-4.03Z"/>
      <path class="cls-1" d="M263.66,113.79h5.33l6.36,22.42h-4.25l-1.24-4.84h-7.07l-1.33,4.84h-4.25l6.45-22.42Zm.06,14.05h5.21l-2.51-9.74h-.06l-2.64,9.74Z"/>
    </g>
    <g>
      <path class="cls-1" d="M130.43,292.19v-18.95h7.56c4.3,0,6.04,2.49,6.06,5.62,.03,2.34-1.15,4.23-3.46,4.88l4.17,8.45h-4.02l-3.57-7.72h-3.12v7.72h-3.62Zm3.62-10.66h2.68c2.83,0,3.7-.89,3.7-2.68s-1.08-2.68-3.07-2.68h-3.31v5.35Z"/>
      <path class="cls-1" d="M147.36,292.19v-18.95h12.54v3.04h-8.92v4.51h6.48v3.04h-6.48v5.3h9.21v3.04h-12.83Z"/>
      <path class="cls-1" d="M171.97,278.28c-.55-1.47-1.68-2.47-3.39-2.47-1.58,0-2.7,.63-2.7,2.1,0,3.25,9.76,2.57,9.76,8.71,0,3.88-2.44,5.83-6.64,5.83-3.1,0-6.01-1.73-7.09-4.49l2.99-1.31c.87,1.78,2,2.97,4.12,2.97,1.81,0,3.2-.68,3.2-2.52,0-3.73-9.76-2.99-9.76-8.82,0-3.39,2.83-5.3,6.12-5.3,3.04,0,5.56,1.52,6.69,4.28l-3.31,1.02Z"/>
      <path class="cls-1" d="M185.5,292.45c-5.17,0-7.95-3.54-7.95-9.74s2.78-9.74,7.95-9.74,7.95,3.54,7.95,9.74-2.78,9.74-7.95,9.74Zm0-16.43c-2.97,0-4.33,2.26-4.33,6.69-.05,4.44,1.34,6.69,4.33,6.69s4.33-2.26,4.33-6.69-1.37-6.69-4.33-6.69Z"/>
      <path class="cls-1" d="M207.05,273.24h3.62v11.86c0,5.54-3.41,7.35-7.27,7.35s-7.27-1.81-7.27-7.35v-11.86h3.62v12.02c0,3.07,1.21,4.15,3.65,4.15s3.65-1.08,3.65-4.15v-12.02Z"/>
      <path class="cls-1" d="M214.38,292.19v-18.95h7.56c4.3,0,6.04,2.49,6.06,5.62,.03,2.34-1.15,4.23-3.46,4.88l4.17,8.45h-4.02l-3.57-7.72h-3.12v7.72h-3.62Zm3.62-10.66h2.68c2.83,0,3.7-.89,3.7-2.68s-1.08-2.68-3.07-2.68h-3.31v5.35Z"/>
      <path class="cls-1" d="M241.1,278.75c-.53-1.6-1.65-2.73-3.44-2.73-2.41,0-3.88,2.26-3.88,6.69-.05,4.44,1.26,6.69,3.99,6.69,1.63,0,2.62-.58,3.7-2.81l3.36,.89c-1.13,3.28-3.6,4.96-7.06,4.96-4.83,0-7.61-3.54-7.61-9.74s2.78-9.74,7.61-9.74c3.62,0,5.72,1.63,6.61,4.99l-3.28,.79Z"/>
      <path class="cls-1" d="M247.16,292.19v-18.95h12.54v3.04h-8.92v4.51h6.48v3.04h-6.48v5.3h9.21v3.04h-12.83Z"/>
      <path class="cls-1" d="M271.76,278.28c-.55-1.47-1.68-2.47-3.39-2.47-1.58,0-2.7,.63-2.7,2.1,0,3.25,9.76,2.57,9.76,8.71,0,3.88-2.44,5.83-6.64,5.83-3.1,0-6.01-1.73-7.09-4.49l2.99-1.31c.87,1.78,2,2.97,4.12,2.97,1.81,0,3.2-.68,3.2-2.52,0-3.73-9.76-2.99-9.76-8.82,0-3.39,2.83-5.3,6.12-5.3,3.04,0,5.56,1.52,6.69,4.28l-3.31,1.02Z"/>
      <path class="cls-1" d="M140.42,308.28c-.48-1.46-1.51-2.49-3.14-2.49-2.2,0-3.55,2.06-3.55,6.11-.05,4.05,1.15,6.11,3.64,6.11,1.49,0,2.4-.53,3.38-2.56l3.07,.81c-1.03,3-3.28,4.53-6.44,4.53-4.41,0-6.95-3.23-6.95-8.89s2.54-8.89,6.95-8.89c3.31,0,5.22,1.49,6.04,4.55l-2.99,.72Z"/>
      <path class="cls-1" d="M152.34,320.79c-4.72,0-7.26-3.23-7.26-8.89s2.54-8.89,7.26-8.89,7.26,3.23,7.26,8.89-2.54,8.89-7.26,8.89Zm0-15c-2.71,0-3.95,2.06-3.95,6.11-.05,4.05,1.22,6.11,3.95,6.11s3.95-2.06,3.95-6.11-1.25-6.11-3.95-6.11Z"/>
      <path class="cls-1" d="M162.15,320.55v-17.3h4.65l3.33,12.07h.05l3.35-12.07h4.7v17.3h-2.87v-13.61h-.05l-3.88,13.61h-2.52l-3.83-13.61h-.05v13.61h-2.88Z"/>
      <path class="cls-1" d="M181.69,320.55v-17.3h4.65l3.33,12.07h.05l3.35-12.07h4.7v17.3h-2.87v-13.61h-.05l-3.88,13.61h-2.52l-3.83-13.61h-.05v13.61h-2.88Z"/>
      <path class="cls-1" d="M201.41,320.55v-17.3h3.31v17.3h-3.31Z"/>
      <path class="cls-1" d="M216.37,307.85c-.5-1.34-1.53-2.25-3.09-2.25-1.44,0-2.47,.58-2.47,1.92,0,2.97,8.91,2.35,8.91,7.95,0,3.54-2.23,5.32-6.06,5.32-2.83,0-5.49-1.58-6.47-4.1l2.73-1.2c.79,1.63,1.82,2.71,3.76,2.71,1.65,0,2.92-.62,2.92-2.3,0-3.4-8.91-2.73-8.91-8.05,0-3.09,2.59-4.84,5.58-4.84,2.78,0,5.08,1.39,6.11,3.91l-3.02,.93Z"/>
      <path class="cls-1" d="M230.81,307.85c-.5-1.34-1.53-2.25-3.09-2.25-1.44,0-2.47,.58-2.47,1.92,0,2.97,8.91,2.35,8.91,7.95,0,3.54-2.23,5.32-6.06,5.32-2.83,0-5.49-1.58-6.47-4.1l2.73-1.2c.79,1.63,1.82,2.71,3.76,2.71,1.65,0,2.92-.62,2.92-2.3,0-3.4-8.91-2.73-8.91-8.05,0-3.09,2.59-4.84,5.58-4.84,2.78,0,5.08,1.39,6.11,3.91l-3.02,.93Z"/>
      <path class="cls-1" d="M237.05,320.55v-17.3h3.31v17.3h-3.31Z"/>
      <path class="cls-1" d="M250.3,320.79c-4.72,0-7.26-3.23-7.26-8.89s2.54-8.89,7.26-8.89,7.26,3.23,7.26,8.89-2.54,8.89-7.26,8.89Zm0-15c-2.71,0-3.95,2.06-3.95,6.11-.05,4.05,1.22,6.11,3.95,6.11s3.95-2.06,3.95-6.11-1.25-6.11-3.95-6.11Z"/>
      <path class="cls-1" d="M260.11,320.55v-17.3h3.45l6.8,11.79h.05v-11.79h3.11v17.3h-3.19l-7.07-12.31h-.05v12.31h-3.11Z"/>
    </g>
  </g>
</svg>